<svg fill="#1C2033" width="52" height="52" viewBox="0 0 64 64" xmlns="http://www.w3.org/2000/svg"><path d="M20.3 57.3996C43.9 57.3996 56.7 37.8996 56.7 20.9996C56.7 20.5996 56.7 19.8996 56.6 19.2996C59.1 17.4996 61.3 15.1996 63 12.6996C60.6 13.7996 58.2 14.3996 55.7 14.6996C58.4 13.0996 60.4 10.5996 61.3 7.59961C58.8 8.99961 56.2 10.0996 53.1 10.6996C50.7 8.19961 47.5 6.59961 43.8 6.59961C36.7 6.59961 30.9 12.3996 30.9 19.4996C30.9 20.4996 31 21.4996 31.2 22.4996C20.9 21.7996 11.5 16.6996 5.1 8.99961C4 10.9996 3.4 13.0996 3.4 15.3996C3.4 19.8996 5.7 23.6996 9.2 25.9996C7.1 25.8996 5.1 25.2996 3.4 24.3996C3.4 24.4996 3.4 24.4996 3.4 24.4996C3.4 30.5996 7.8 35.8996 13.6 37.0996C12.5 37.3996 11.3 37.4996 10.4 37.4996C9.6 37.4996 8.7 37.3996 8 37.1996C9.7 42.2996 14.4 45.9996 20 46.0996C15.6 49.4996 10.1 51.5996 4.2 51.5996C3 51.7996 2 51.5996 1 51.4996C6.4 55.2996 13.1 57.3996 20.3 57.3996Z"/></svg>